<svg width="16" height="16" fill="none" xmlns="http://www.w3.org/2000/svg"><path d="M14.647 12.22c0 .24-.053.487-.166.727-.114.24-.26.467-.454.68-.326.36-.686.62-1.093.787-.4.166-.833.253-1.3.253-.68 0-1.407-.16-2.173-.487a11.713 11.713 0 01-2.294-1.32 19.163 19.163 0 01-2.186-1.867 18.939 18.939 0 01-1.86-2.18c-.547-.76-.987-1.52-1.307-2.273-.32-.76-.48-1.487-.48-2.18 0-.453.08-.887.24-1.287.16-.406.413-.78.767-1.113.426-.42.893-.627 1.386-.627.187 0 .374.04.54.12.174.08.327.2.447.374l1.547 2.18c.12.167.206.32.266.466.06.14.094.28.094.407 0 .16-.047.32-.14.474a2.268 2.268 0 01-.374.473l-.506.527a.357.357 0 00-.107.266c0 .053.007.1.02.154.02.053.04.093.053.133.12.22.327.506.62.853.3.347.62.7.967 1.053.36.354.707.68 1.06.98.347.294.633.494.86.614.033.013.073.033.12.053a.46.46 0 00.167.027c.113 0 .2-.04.273-.114l.507-.5c.166-.166.326-.293.48-.373a.888.888 0 01.473-.14c.127 0 .26.027.407.087.146.06.3.147.466.26l2.207 1.566c.173.12.293.26.367.427.066.167.106.334.106.52zM12.333 6c0-.4-.313-1.013-.78-1.513-.426-.46-.993-.82-1.553-.82M14.667 6A4.663 4.663 0 0010 1.333"/></svg>