<svg width="16" height="16" fill="none" xmlns="http://www.w3.org/2000/svg"><path d="M8.093 5.08H4.58c-1.24 0-1.52.62-1.673 1.387l-.567 2.7h8l-.567-2.7c-.166-.767-.44-1.387-1.68-1.387z"/><path d="M11.327 13.573a1.008 1.008 0 01-1.014 1.094h-.94c-.54 0-.613-.234-.713-.514l-.1-.3c-.14-.406-.233-.686-.953-.686h-2.56c-.72 0-.827.313-.954.686l-.1.3c-.093.287-.166.514-.713.514h-.94c-.6 0-1.073-.507-1.013-1.094l.28-3.046c.073-.754.213-1.367 1.526-1.367h6.38c1.314 0 1.454.613 1.527 1.367l.287 3.046zM2.333 7.667h-.5m9 0h-.5m-7 3.5h1.5m3 0h1.5m3.14-5.34c.187-.434.12-1.02-.226-1.534-.34-.513-.86-.8-1.334-.793m3.634 2.987c.28-1.007.08-2.24-.634-3.307-.713-1.067-1.78-1.72-2.82-1.847"/></svg>