<svg width="16" height="16" fill="none" xmlns="http://www.w3.org/2000/svg"><path d="M10.34 1.887H5.66c-1.66 0-2.027.826-2.24 1.84l-.754 3.606h10.667l-.754-3.606c-.213-1.014-.58-1.84-2.24-1.84z"/><path d="M14.66 13.213c.073.78-.553 1.454-1.354 1.454h-1.253c-.72 0-.82-.307-.947-.687l-.133-.4c-.187-.547-.307-.913-1.267-.913H6.293c-.96 0-1.1.413-1.267.913l-.133.4c-.127.38-.227.687-.947.687H2.693c-.8 0-1.427-.674-1.353-1.454l.373-4.06c.093-1 .287-1.82 2.033-1.82h8.507c1.747 0 1.94.82 2.034 1.82l.373 4.06zM2.667 5.333H2m12 0h-.666M8 2v1.333m-1 0h2M4 10h2m4 0h2"/></svg>