<svg width="16" height="16" fill="none" xmlns="http://www.w3.org/2000/svg"><g clip-path="url(#clip0_835_26941)"><path d="M15.333 6.333v3.334c0 3.333-1.333 4.666-4.666 4.666h-4C3.333 14.333 2 13 2 9.667v-4C2 2.333 3.333 1 6.667 1H10" stroke="#343538" stroke-linecap="round" stroke-linejoin="round"/><path d="M15.333 6.333h-2.666c-2 0-2.667-.666-2.667-2.666V1l5.333 5.333z" stroke="#343538" stroke-linecap="round" stroke-linejoin="round"/><path fill-rule="evenodd" clip-rule="evenodd" d="M10 8.359c0-.198.16-.359.359-.359h2.359a.359.359 0 110 .718h-2.359A.359.359 0 0110 8.359zM10 10c0-.198.16-.359.359-.359h2.359a.359.359 0 110 .718h-2.359A.359.359 0 0110 10zm0 1.641c0-.198.16-.359.359-.359h2.359a.359.359 0 110 .718h-2.359a.359.359 0 01-.359-.359z" fill="#45AE79"/><g clip-path="url(#clip1_835_26941)"><path d="M0 4.667C0 4.299.298 4 .667 4h6.666c.369 0 .667.299.667.667v6.666a.667.667 0 01-.667.667H.667A.667.667 0 010 11.333V4.667z" fill="#45AE79"/><path d="M2.222 10.232l1.249-2.324-1.133-2.13H3.2l.733 1.43.717-1.43h.853L4.37 7.94l1.249 2.29h-.89l-.812-1.54-.81 1.54h-.885z" fill="#fff"/></g></g><defs><clipPath id="clip0_835_26941"><path fill="#fff" d="M0 0h16v16H0z"/></clipPath><clipPath id="clip1_835_26941"><rect y="4" width="8" height="8" rx="2" fill="#fff"/></clipPath></defs></svg>