<svg width="16" height="16" fill="none" xmlns="http://www.w3.org/2000/svg"><path d="M6 14.667h4c3.333 0 4.667-1.334 4.667-4.667V6c0-3.333-1.334-4.667-4.667-4.667H6C2.667 1.333 1.333 2.667 1.333 6v4c0 3.333 1.334 4.667 4.667 4.667z"/><path d="M12 5.167v4.5c0-.734-.6-1.334-1.333-1.334H5.333C4.6 8.333 4 8.933 4 9.667v-4.5c0-.734.6-1.334 1.333-1.334h5.334c.733 0 1.333.6 1.333 1.334zm.667 5.333H12m-8 0h-.667"/><path d="M12 9.333v-2C12 6.6 11.4 6 10.667 6H5.333C4.6 6 4 6.6 4 7.333v2"/><path d="M12 9.667v.833H9.667a1.667 1.667 0 01-3.334 0H4v-.833c0-.734.6-1.334 1.333-1.334h5.334c.733 0 1.333.6 1.333 1.334z"/></svg>