<svg width="17" height="16" fill="none" xmlns="http://www.w3.org/2000/svg"><path d="M6.5 14.667h4c3.334 0 4.667-1.333 4.667-4.667V6c0-3.333-1.333-4.667-4.666-4.667h-4C3.167 1.333 1.834 2.667 1.834 6v4c0 3.334 1.333 4.667 4.667 4.667z"/><path d="M12.433 6.033a43.694 43.694 0 00-4.38-.22c-.867 0-1.733.047-2.593.134l-.894.086m2.407-.44l.093-.573c.067-.413.12-.727.86-.727h1.147c.74 0 .793.327.86.727l.093.567m1.467.5l-.286 4.4c-.047.687-.087 1.22-1.307 1.22H7.093c-1.22 0-1.26-.533-1.306-1.22l-.287-4.4"/></svg>