<svg width="21" height="22" fill="none" xmlns="http://www.w3.org/2000/svg"><path d="M1.585 4.413l.353-.353a.5.5 0 00-.804.137l.45.216zM5.95 8.778l-.354.354a.5.5 0 00.707 0l-.353-.354zM8.778 5.95l.354.353a.5.5 0 000-.707l-.354.354zM4.413 1.585l-.216-.451a.5.5 0 00-.137.804l.353-.353zm8.057 7.884l-.456-.206a.5.5 0 00.103.56l.353-.354zm3.617 10.617l.353-.354-.353.354zm-7.343-7.343l.353-.354a.5.5 0 00-.498-.125l.145.479zm-7.61-8.546A6.47 6.47 0 00.5 7h1c0-.85.192-1.654.536-2.371l-.902-.432zm5.17 4.228L1.937 4.06l-.707.707 4.365 4.365.707-.707zm2.12-2.829L5.597 8.425l.707.707 2.829-2.829-.707-.707zM4.06 1.938l4.365 4.365.707-.707-4.365-4.365-.707.707zM7 .5a6.476 6.476 0 00-2.803.634l.432.902A5.476 5.476 0 017 1.5v-1zM13.5 7A6.5 6.5 0 007 .5v1A5.5 5.5 0 0112.5 7h1zm-.574 2.675A6.477 6.477 0 0013.5 7h-1c0 .808-.174 1.574-.486 2.263l.912.412zm-.81.148l7.117 7.116.707-.707-7.116-7.116-.707.707zm7.117 7.116a1.5 1.5 0 010 2.122l.707.707a2.5 2.5 0 000-3.536l-.707.707zm0 2.122l-.671.671.707.707.671-.671-.707-.707zm-.671.671a1.5 1.5 0 01-2.122 0l-.707.707a2.5 2.5 0 003.536 0l-.707-.707zm-2.122 0L9.097 12.39l-.707.707 7.343 7.343.707-.707zM7 13.5a6.5 6.5 0 001.889-.279l-.29-.957A5.5 5.5 0 017 12.5v1zM.5 7A6.5 6.5 0 007 13.5v-1A5.5 5.5 0 011.5 7h-1z"/></svg>