<svg width="16" height="16" fill="none" xmlns="http://www.w3.org/2000/svg"><path d="M12.093 14.413c-.586.174-1.28.254-2.093.254H6c-.813 0-1.507-.08-2.093-.254.146-1.733 1.926-3.1 4.093-3.1s3.947 1.367 4.093 3.1z"/><path d="M10 1.333H6C2.667 1.333 1.333 2.667 1.333 6v4c0 2.52.76 3.9 2.574 4.413.146-1.733 1.926-3.1 4.093-3.1s3.947 1.367 4.093 3.1c1.814-.513 2.574-1.893 2.574-4.413V6c0-3.333-1.334-4.667-4.667-4.667zM8 9.447a2.39 2.39 0 010-4.78 2.39 2.39 0 010 4.78z"/><path d="M10.387 7.053A2.39 2.39 0 018 9.447a2.39 2.39 0 010-4.78 2.384 2.384 0 012.387 2.386z"/></svg>