<svg width="112" height="31" fill="none" xmlns="http://www.w3.org/2000/svg"><path d="M44.428 10.357h4.687l-2.338-4.85-2.349 4.85zm-.942 1.951l-1.396 2.903h-2.434l5.925-11.967h2.37l5.941 11.967h-2.433l-1.397-2.903h-6.576zm11.893 2.903V3.244h2.258v9.99h8.137v1.977H55.379zm18.23-2.008c2.644 0 3.993-1.712 3.993-3.99 0-2.238-1.343-3.96-3.994-3.96h-4.12v7.95h4.12zm0-9.964c3.835 0 6.332 2.378 6.332 5.973a5.845 5.845 0 01-.436 2.281 5.925 5.925 0 01-1.291 1.942 6.035 6.035 0 01-1.95 1.307 6.116 6.116 0 01-2.312.47h-6.718V3.243l6.374-.005zm-28.393 22.28l-.751-2.092c-.275-.754-.402-1.175-.497-1.482h-.032c-.158.498-.33.992-.513 1.482l-.778 2.092h2.571zm-1.851-5.682h1.11l3.704 9.246h-1.587l-.91-2.362h-3.476l-.9 2.362h-1.533l3.592-9.246zm6.01 8.117a3.45 3.45 0 01-.197-1.332v-4.147h1.482v3.955c0 .374.02.655.121.895.175.432.514.64 1.037.64a2.13 2.13 0 001.55-.698V22.48h1.476v4.772c0 .91.027 1.483.127 1.831h-1.275l-.243-.712a3.191 3.191 0 01-2.132.853 2.01 2.01 0 01-1.183-.323 1.958 1.958 0 01-.764-.947zm7.855-.437V23.62h-1.18v-1.145h1.18v-1.524l1.481-.443v1.967h2.01l-.37 1.145h-1.64v3.575c0 .603.223.843.662.843.412 0 .783-.157 1.058-.339l.465 1.005a3.542 3.542 0 01-1.878.52c-1.121 0-1.788-.63-1.788-1.707zm9.4-1.758c0-1.317-.624-2.264-1.745-2.264-1.122 0-1.762.947-1.762 2.264 0 1.326.64 2.279 1.762 2.279 1.121 0 1.746-.953 1.746-2.28zm-5.025 0c0-1.973 1.307-3.45 3.28-3.45 1.957 0 3.27 1.477 3.27 3.45 0 1.971-1.307 3.465-3.27 3.465s-3.28-1.494-3.28-3.465zm7.909-3.284h1.238l.158.78c.678-.54 1.445-.946 2.286-.946.793 0 1.433.364 1.756 1.061.815-.687 1.666-1.061 2.45-1.061 1.147 0 2.142.655 2.142 2.372v4.402h-1.481v-3.996c0-.832-.17-1.509-1.058-1.509-.603 0-1.212.338-1.746.77.01.104.014.208.01.313v4.422h-1.48v-3.98c0-.838-.17-1.525-1.048-1.525-.614 0-1.222.338-1.746.77v4.735h-1.481v-6.608zm16.389 3.284c0-1.317-.62-2.264-1.746-2.264-1.127 0-1.762.947-1.762 2.264 0 1.326.64 2.279 1.762 2.279 1.121 0 1.746-.953 1.746-2.28zm-5.026 0c0-1.973 1.307-3.45 3.28-3.45 1.957 0 3.27 1.477 3.27 3.45 0 1.971-1.307 3.465-3.27 3.465s-3.28-1.494-3.28-3.465zm8.507 1.758V23.62h-1.18v-1.145h1.18v-1.524l1.48-.443v1.967h2.011l-.37 1.145h-1.64v3.575c0 .603.222.843.666.843.413 0 .783-.157 1.053-.339l.466 1.005a3.54 3.54 0 01-1.873.52c-1.122 0-1.793-.63-1.793-1.707zm4.787-5.042h1.481v6.608h-1.48v-6.608zm-.185-2.107c0-.505.386-.895.92-.895.545 0 .926.375.926.895a.874.874 0 01-.27.638.902.902 0 01-.656.252.908.908 0 01-.653-.252.878.878 0 01-.267-.638zm2.687 2.107h1.503l1.761 4.761h.032l1.719-4.76h1.503l-2.682 6.649h-1.138l-2.698-6.65zm11.332 2.623c-.027-.833-.439-1.66-1.391-1.66-.9 0-1.418.77-1.434 1.665l2.825-.005zm-4.317.66c0-1.997 1.122-3.45 2.941-3.45 1.831 0 2.884 1.343 2.884 3.477v.348h-4.317c.026 1.134.777 1.93 1.999 1.93a3.393 3.393 0 001.693-.447l.439.989a4.322 4.322 0 01-2.29.624c-2.338 0-3.349-1.639-3.349-3.47z" fill="#fff"/><path fill-rule="evenodd" clip-rule="evenodd" d="M1.068 1.069h29.915V15.5H1.068V1.069z" fill="#E4032E"/><path fill-rule="evenodd" clip-rule="evenodd" d="M1.068 15.5h29.915v14.431H1.068V15.5z" fill="#000"/><path fill-rule="evenodd" clip-rule="evenodd" d="M6.297 14.624H25.76v1.752H6.297v-1.752z" fill="#fff"/><path stroke="#fff" d="M.568.569h30.915v29.862H.568z"/></svg>