<svg width="71" height="27" fill="none" xmlns="http://www.w3.org/2000/svg"><path d="M5.428 7.357h4.687l-2.338-4.85-2.35 4.85zm-.942 1.951L3.09 12.211H.656L6.581.244h2.37l5.94 11.967h-2.433l-1.396-2.903H4.486zm11.892 2.903V.244h2.26v9.99h8.136v1.977H16.378zm18.23-2.008c2.645 0 3.994-1.712 3.994-3.99 0-2.238-1.343-3.96-3.994-3.96h-4.12v7.95h4.12zm0-9.964c3.836 0 6.333 2.378 6.333 5.973a5.849 5.849 0 01-.436 2.281 5.924 5.924 0 01-1.291 1.942 6.035 6.035 0 01-1.951 1.307 6.117 6.117 0 01-2.31.47h-6.72V.243l6.375-.005zM6.216 22.519l-.751-2.092c-.275-.754-.402-1.175-.497-1.482h-.032c-.159.498-.33.992-.513 1.482l-.778 2.092h2.571zm-1.851-5.682h1.11l3.704 9.246H7.59l-.91-2.362H3.207l-.9 2.362H.774l3.592-9.246zm6.01 8.117a3.448 3.448 0 01-.197-1.332v-4.147h1.482v3.955c0 .374.02.655.121.895.175.432.513.64 1.037.64a2.13 2.13 0 001.55-.698V19.48h1.476v4.772c0 .91.027 1.483.127 1.831h-1.275l-.243-.712a3.191 3.191 0 01-2.132.853 2.01 2.01 0 01-1.184-.323 1.957 1.957 0 01-.763-.947zm7.855-.437V20.62h-1.18v-1.145h1.18v-1.524l1.481-.443v1.967h2.01l-.37 1.145h-1.64v3.575c0 .603.222.843.662.843.412 0 .782-.157 1.057-.339l.466 1.005a3.541 3.541 0 01-1.878.52c-1.122 0-1.788-.63-1.788-1.707zm9.4-1.758c0-1.317-.624-2.264-1.745-2.264-1.122 0-1.762.947-1.762 2.264 0 1.326.64 2.279 1.762 2.279 1.121 0 1.746-.953 1.746-2.28zm-5.025 0c0-1.973 1.307-3.45 3.28-3.45 1.957 0 3.27 1.477 3.27 3.45 0 1.971-1.308 3.465-3.27 3.465-1.963 0-3.28-1.494-3.28-3.465zm7.909-3.284h1.238l.158.78c.677-.54 1.445-.946 2.286-.946.793 0 1.433.364 1.756 1.061.815-.687 1.666-1.061 2.45-1.061 1.147 0 2.142.655 2.142 2.372v4.402h-1.481v-3.996c0-.832-.17-1.509-1.059-1.509-.603 0-1.21.338-1.745.77.01.104.014.208.01.313v4.422h-1.48v-3.98c0-.838-.17-1.525-1.048-1.525-.614 0-1.222.338-1.746.77v4.735h-1.481v-6.608zm16.389 3.284c0-1.317-.62-2.264-1.746-2.264-1.127 0-1.762.947-1.762 2.264 0 1.326.64 2.279 1.762 2.279 1.121 0 1.746-.953 1.746-2.28zm-5.026 0c0-1.973 1.307-3.45 3.28-3.45 1.957 0 3.27 1.477 3.27 3.45 0 1.971-1.308 3.465-3.27 3.465-1.963 0-3.28-1.494-3.28-3.465zm8.506 1.758V20.62h-1.18v-1.145h1.18v-1.524l1.482-.443v1.967h2.01l-.37 1.145h-1.64v3.575c0 .603.222.843.666.843.413 0 .783-.157 1.053-.339l.465 1.005a3.541 3.541 0 01-1.872.52c-1.122 0-1.794-.63-1.794-1.707zm4.788-5.042h1.481v6.608h-1.481v-6.608zm-.185-2.107c0-.505.386-.895.92-.895.545 0 .926.375.926.895a.872.872 0 01-.27.638.903.903 0 01-.656.252.908.908 0 01-.653-.252.878.878 0 01-.267-.638zm2.687 2.107h1.503l1.761 4.761h.032l1.72-4.76h1.502l-2.682 6.649H60.37l-2.698-6.65zm11.332 2.623c-.027-.833-.44-1.66-1.392-1.66-.899 0-1.417.77-1.433 1.665l2.825-.005zm-4.317.66c0-1.997 1.121-3.45 2.941-3.45 1.83 0 2.883 1.343 2.883 3.477v.348h-4.316c.026 1.134.777 1.93 2 1.93a3.393 3.393 0 001.692-.447l.44.989a4.324 4.324 0 01-2.291.624c-2.339 0-3.349-1.639-3.349-3.47z" fill="#000"/></svg>