<svg width="17" height="16" viewBox="0 0 17 16" fill="none" xmlns="http://www.w3.org/2000/svg">
    <path d="M6.50065 14.6668H10.5007C13.834 14.6668 15.1673 13.3335 15.1673 10.0002V6.00016C15.1673 2.66683 13.834 1.3335 10.5007 1.3335H6.50065C3.16732 1.3335 1.83398 2.66683 1.83398 6.00016V10.0002C1.83398 13.3335 3.16732 14.6668 6.50065 14.6668Z" stroke-linecap="round" stroke-linejoin="round"/>
    <path d="M12.4331 6.03348C10.9797 5.88681 9.51307 5.81348 8.05307 5.81348C7.1864 5.81348 6.31974 5.86014 5.45974 5.94681L4.56641 6.03348" stroke-linecap="round" stroke-linejoin="round"/>
    <path d="M6.97266 5.59345L7.06599 5.02012C7.13266 4.60679 7.18598 4.29346 7.92598 4.29346H9.07265C9.81265 4.29346 9.86598 4.62012 9.93265 5.02012L10.026 5.58679" stroke-linecap="round" stroke-linejoin="round"/>
    <path d="M11.4933 6.08691L11.2067 10.4869C11.16 11.1736 11.12 11.7069 9.9 11.7069H7.09333C5.87333 11.7069 5.83333 11.1736 5.78666 10.4869L5.5 6.08691" stroke-linecap="round" stroke-linejoin="round"/>
</svg>