<svg width="26" height="24" viewBox="0 0 26 24" fill="none" xmlns="http://www.w3.org/2000/svg">
    <path d="M18.5352 13.4V16.4C18.5352 20.4 16.8285 22 12.5618 22H8.50849C4.24182 22 2.53516 20.4 2.53516 16.4V12.6C2.53516 8.6 4.24182 7 8.50849 7H11.7085" stroke-linecap="round" stroke-linejoin="round"/>
    <path d="M18.5337 13.4H15.1204C12.5604 13.4 11.707 12.6 11.707 10.2V7L18.5337 13.4Z" stroke-linecap="round" stroke-linejoin="round"/>
    <path d="M12.7715 2H17.0382" stroke-linecap="round" stroke-linejoin="round"/>
    <path d="M7.86523 5C7.86523 3.34 9.29457 2 11.0652 2H13.8599" stroke-linecap="round" stroke-linejoin="round"/>
    <path d="M23.8665 8V14.19C23.8665 15.74 22.5225 17 20.8691 17"  stroke-linecap="round" stroke-linejoin="round"/>
    <path d="M23.8668 8H20.6668C18.2668 8 17.4668 7.25 17.4668 5V2L23.8668 8Z" stroke-linecap="round" stroke-linejoin="round"/>
</svg>
