<svg width="21" height="22" viewBox="0 0 21 22" fill="none" xmlns="http://www.w3.org/2000/svg">
    <path d="M1.58474 4.41317L1.9383 4.05962C1.82357 3.94489 1.66031 3.89296 1.50038 3.92034C1.34046 3.94771 1.20376 4.05098 1.13373 4.19733L1.58474 4.41317ZM5.94975 8.77817L5.59619 9.13173C5.79146 9.32699 6.10804 9.32699 6.3033 9.13173L5.94975 8.77817ZM8.77817 5.94975L9.13173 6.3033C9.2255 6.20953 9.27817 6.08236 9.27817 5.94975C9.27817 5.81714 9.2255 5.68996 9.13173 5.59619L8.77817 5.94975ZM4.41317 1.58474L4.19733 1.13373C4.05098 1.20376 3.94771 1.34046 3.92034 1.50038C3.89296 1.66031 3.94489 1.82357 4.05962 1.9383L4.41317 1.58474ZM12.47 9.46911L12.0144 9.26313C11.9287 9.45271 11.9694 9.67555 12.1165 9.82267L12.47 9.46911ZM16.0867 20.0858L16.4402 19.7322L16.0867 20.0858ZM8.74363 12.7427L9.09719 12.3892C8.96674 12.2587 8.77508 12.2107 8.59854 12.2642L8.74363 12.7427ZM1.13373 4.19733C0.727331 5.04655 0.5 5.99743 0.5 7H1.5C1.5 6.14999 1.69248 5.34633 2.03576 4.629L1.13373 4.19733ZM6.3033 8.42462L1.9383 4.05962L1.23119 4.76672L5.59619 9.13173L6.3033 8.42462ZM8.42462 5.59619L5.59619 8.42462L6.3033 9.13173L9.13173 6.3033L8.42462 5.59619ZM4.05962 1.9383L8.42462 6.3033L9.13173 5.59619L4.76672 1.23119L4.05962 1.9383ZM7 0.5C5.99743 0.5 5.04655 0.727331 4.19733 1.13373L4.629 2.03576C5.34633 1.69248 6.14999 1.5 7 1.5V0.5ZM13.5 7C13.5 3.41015 10.5899 0.5 7 0.5V1.5C10.0376 1.5 12.5 3.96243 12.5 7H13.5ZM12.9256 9.67509C13.2948 8.85859 13.5 7.95259 13.5 7H12.5C12.5 7.80773 12.3262 8.57353 12.0144 9.26313L12.9256 9.67509ZM12.1165 9.82267L19.2331 16.9393L19.9402 16.2322L12.8236 9.11556L12.1165 9.82267ZM19.2331 16.9393C19.8189 17.5251 19.8189 18.4749 19.2331 19.0606L19.9402 19.7678C20.9166 18.7914 20.9165 17.2085 19.9402 16.2322L19.2331 16.9393ZM19.2331 19.0606L18.5616 19.7322L19.2687 20.4393L19.9402 19.7678L19.2331 19.0606ZM18.5616 19.7322C17.9758 20.318 17.026 20.318 16.4402 19.7322L15.7331 20.4393C16.7094 21.4156 18.2924 21.4156 19.2687 20.4393L18.5616 19.7322ZM16.4402 19.7322L9.09719 12.3892L8.39008 13.0963L15.7331 20.4393L16.4402 19.7322ZM7 13.5C7.65613 13.5 8.29041 13.4026 8.88872 13.2212L8.59854 12.2642C8.09328 12.4174 7.55674 12.5 7 12.5V13.5ZM0.5 7C0.5 10.5899 3.41015 13.5 7 13.5V12.5C3.96243 12.5 1.5 10.0376 1.5 7H0.5Z"/>
</svg>
