<svg width="16" height="16" viewBox="0 0 16 16" fill="none" xmlns="http://www.w3.org/2000/svg">
    <path d="M8.0933 5.07996H4.57997C3.33997 5.07996 3.05997 5.69997 2.90664 6.46663L2.33997 9.16663H10.34L9.77331 6.46663C9.60664 5.69997 9.3333 5.07996 8.0933 5.07996Z" stroke-linecap="round" stroke-linejoin="round"/>
    <path d="M11.3267 13.5732C11.38 14.1599 10.9133 14.6666 10.3133 14.6666H9.37333C8.83333 14.6666 8.76 14.4332 8.66 14.1532L8.56 13.8533C8.42 13.4466 8.32667 13.1666 7.60667 13.1666H5.04667C4.32667 13.1666 4.22 13.4799 4.09333 13.8533L3.99334 14.1532C3.9 14.4399 3.82667 14.6666 3.28 14.6666H2.34C1.74 14.6666 1.26667 14.1599 1.32667 13.5732L1.60667 10.5266C1.68 9.77324 1.82 9.15991 3.13333 9.15991H9.51334C10.8267 9.15991 10.9667 9.77324 11.04 10.5266L11.3267 13.5732Z" stroke-linecap="round" stroke-linejoin="round"/>
    <path d="M2.33337 7.66663H1.83337" stroke-linecap="round" stroke-linejoin="round"/>
    <path d="M10.8334 7.66663H10.3334" stroke-linecap="round" stroke-linejoin="round"/>
    <path d="M3.33337 11.1666H4.83337" stroke-linecap="round" stroke-linejoin="round"/>
    <path d="M7.83337 11.1666H9.33337" stroke-linecap="round" stroke-linejoin="round"/>
    <path d="M12.4733 5.82665C12.66 5.39332 12.5933 4.80666 12.2467 4.29333C11.9067 3.77999 11.3867 3.49332 10.9133 3.49999" stroke-linecap="round" stroke-linejoin="round"/>
    <path d="M14.5467 6.48669C14.8267 5.48003 14.6267 4.24672 13.9134 3.18005C13.2 2.11339 12.1334 1.46004 11.0934 1.33337" stroke-linecap="round" stroke-linejoin="round"/>
</svg>