<svg width="14" height="14" viewBox="0 0 14 14" fill="none" xmlns="http://www.w3.org/2000/svg">
<path d="M6.9974 10.1178V8.42651" stroke-linecap="round" stroke-linejoin="round"/>
<path fill-rule="evenodd" clip-rule="evenodd" d="M11.1273 2.55347C12.254 2.55347 13.1607 3.4668 13.1607 4.59347V6.8868C11.5207 7.8468 9.35398 8.4268 6.99398 8.4268C4.63398 8.4268 2.47398 7.8468 0.833984 6.8868V4.5868C0.833984 3.46013 1.74732 2.55347 2.87398 2.55347H11.1273Z"  stroke-linecap="round" stroke-linejoin="round"/>
<path d="M9.33073 2.55052V2.30652C9.33073 1.49319 8.67073 0.833191 7.8574 0.833191H6.1374C5.32406 0.833191 4.66406 1.49319 4.66406 2.30652V2.55052"  stroke-linecap="round" stroke-linejoin="round"/>
<path d="M0.849609 9.32202L0.975609 10.9947C1.06094 12.122 2.00028 12.9934 3.13028 12.9934H10.8629C11.9929 12.9934 12.9323 12.122 13.0176 10.9947L13.1436 9.32202"  stroke-linecap="round" stroke-linejoin="round"/>
</svg>
