<svg width="16" height="16" viewBox="0 0 16 16" fill="none" xmlns="http://www.w3.org/2000/svg">
    <path d="M12.0933 14.4132C11.5066 14.5866 10.8133 14.6666 9.99995 14.6666H5.99995C5.18662 14.6666 4.49328 14.5866 3.90662 14.4132C4.05328 12.6799 5.83328 11.3132 7.99995 11.3132C10.1666 11.3132 11.9466 12.6799 12.0933 14.4132Z" stroke-linecap="round" stroke-linejoin="round"/>
    <path d="M10 1.33325H6.00004C2.66671 1.33325 1.33337 2.66659 1.33337 5.99992V9.99992C1.33337 12.5199 2.09337 13.8999 3.90671 14.4132C4.05337 12.6799 5.83337 11.3132 8.00004 11.3132C10.1667 11.3132 11.9467 12.6799 12.0934 14.4132C13.9067 13.8999 14.6667 12.5199 14.6667 9.99992V5.99992C14.6667 2.66659 13.3334 1.33325 10 1.33325ZM8.00004 9.44657C6.68004 9.44657 5.61337 8.37326 5.61337 7.05326C5.61337 5.73326 6.68004 4.66659 8.00004 4.66659C9.32004 4.66659 10.3867 5.73326 10.3867 7.05326C10.3867 8.37326 9.32004 9.44657 8.00004 9.44657Z" stroke-linecap="round" stroke-linejoin="round"/>
    <path d="M10.3866 7.05343C10.3866 8.37343 9.31995 9.44674 7.99995 9.44674C6.67995 9.44674 5.61328 8.37343 5.61328 7.05343C5.61328 5.73343 6.67995 4.66675 7.99995 4.66675C9.31995 4.66675 10.3866 5.73343 10.3866 7.05343Z" stroke-linecap="round" stroke-linejoin="round"/>
</svg>