<svg width="16" height="16" viewBox="0 0 16 16" fill="none" xmlns="http://www.w3.org/2000/svg">
    <path d="M5.33398 1.3335V3.3335" stroke-miterlimit="10" stroke-linecap="round" stroke-linejoin="round"/>
    <path d="M10.666 1.3335V3.3335" stroke-miterlimit="10" stroke-linecap="round" stroke-linejoin="round"/>
    <path d="M12.1333 14.2667C13.3115 14.2667 14.2667 13.3115 14.2667 12.1333C14.2667 10.9551 13.3115 10 12.1333 10C10.9551 10 10 10.9551 10 12.1333C10 13.3115 10.9551 14.2667 12.1333 14.2667Z" stroke-linecap="round" stroke-linejoin="round"/>
    <path d="M14.6667 14.6667L14 14" stroke-linecap="round" stroke-linejoin="round"/>
    <path d="M2.33398 6.06006H13.6673" stroke-miterlimit="10" stroke-linecap="round" stroke-linejoin="round"/>
    <path d="M8.91333 14.6666H5.33333C3 14.6666 2 13.3333 2 11.3333V5.66659C2 3.66659 3 2.33325 5.33333 2.33325H10.6667C13 2.33325 14 3.66659 14 5.66659V8.66658" stroke-miterlimit="10" stroke-linecap="round" stroke-linejoin="round"/>
    <path d="M7.99764 9.13338H8.00363" stroke-linecap="round" stroke-linejoin="round"/>
    <path d="M5.52889 9.13338H5.53488" stroke-linecap="round" stroke-linejoin="round"/>
    <path d="M5.52889 11.1334H5.53488" stroke-linecap="round" stroke-linejoin="round"/>
</svg>