<svg width="16" height="16" viewBox="0 0 16 16" fill="none" xmlns="http://www.w3.org/2000/svg">
    <path d="M14.6194 4.50684L12.3728 13.5269C12.2128 14.2002 11.6128 14.6668 10.9194 14.6668H2.15944C1.15277 14.6668 0.432779 13.6801 0.732779 12.7135L3.53944 3.7002C3.73277 3.07353 4.31278 2.64014 4.96612 2.64014H13.1661C13.7994 2.64014 14.3261 3.02681 14.5461 3.56014C14.6728 3.84681 14.6994 4.1735 14.6194 4.50684Z" stroke-miterlimit="10"/>
    <path d="M10.666 14.6667H13.8527C14.7127 14.6667 15.386 13.94 15.326 13.08L14.666 4" stroke-miterlimit="10" stroke-linecap="round" stroke-linejoin="round"/>
    <path d="M6.45312 4.25326L7.14646 1.37329" stroke-miterlimit="10" stroke-linecap="round" stroke-linejoin="round"/>
    <path d="M10.9199 4.26001L11.5466 1.3667" stroke-miterlimit="10" stroke-linecap="round" stroke-linejoin="round"/>
    <path d="M5.13281 8H10.4661" stroke-miterlimit="10" stroke-linecap="round" stroke-linejoin="round"/>
    <path d="M4.4668 10.6667H9.80013" stroke-miterlimit="10" stroke-linecap="round" stroke-linejoin="round"/>
</svg>