<svg width="112" height="31" viewBox="0 0 112 31" fill="none" xmlns="http://www.w3.org/2000/svg">
<path d="M44.428 10.3568H49.115L46.7768 5.50739L44.428 10.3568ZM43.4863 12.3081L42.0897 15.2115H39.6562L45.5812 3.24397H47.9512L53.892 15.2115H51.4586L50.062 12.3081H43.4863ZM55.3785 15.2115V3.24397H57.6374V13.2342H65.7737V15.2115H55.3785ZM73.6084 13.203C76.2534 13.203 77.6024 11.4911 77.6024 9.21212C77.6024 6.97471 76.2587 5.25243 73.6084 5.25243H69.4874V13.203H73.6084ZM73.6084 3.23877C77.4437 3.23877 79.9407 5.61666 79.9407 9.21212C79.9498 9.99327 79.8019 10.7685 79.5055 11.4933C79.2091 12.218 78.7701 12.8781 78.2137 13.4355C77.6573 13.993 76.9944 14.4368 76.2631 14.7416C75.5318 15.0464 74.7465 15.2061 73.9522 15.2115H67.2338V3.24397L73.6084 3.23877ZM45.2162 25.5192L44.465 23.4274C44.1899 22.673 44.0629 22.2515 43.9677 21.9445H43.936C43.7775 22.4429 43.6064 22.9374 43.4228 23.4274L42.6452 25.5192H45.2162ZM43.3646 19.8372H44.4756L48.1787 29.0834H46.5916L45.6817 26.7211H42.2061L41.3068 29.0834H39.7726L43.3646 19.8372ZM49.3742 27.9543C49.222 27.5269 49.1556 27.0745 49.1785 26.6222V22.4752H50.6597V26.4297C50.6597 26.8044 50.6809 27.0853 50.7814 27.3247C50.956 27.7566 51.2946 27.9647 51.8183 27.9647C52.4531 27.9647 53.035 27.6473 53.3683 27.2675V22.4804H54.8442V27.2518C54.8442 28.1624 54.8707 28.7348 54.9712 29.0834H53.6963L53.4529 28.3705C52.8764 28.9082 52.1154 29.2128 51.321 29.2239C50.9017 29.242 50.4873 29.1289 50.1375 28.9008C49.7877 28.6726 49.5205 28.3413 49.3742 27.9543ZM57.2301 27.5172V23.62H56.0504V22.4752H57.2301V20.9507L58.7113 20.5084V22.4752H60.7216L60.3513 23.62H58.7113V27.1946C58.7113 27.7982 58.9335 28.0375 59.3726 28.0375C59.7852 28.0375 60.1555 27.8814 60.4306 27.6993L60.8962 28.7036C60.333 29.0487 59.6817 29.2292 59.0182 29.2239C57.8967 29.2239 57.2301 28.5943 57.2301 27.5172ZM66.6307 25.7585C66.6307 24.4421 66.0064 23.4951 64.8849 23.4951C63.7634 23.4951 63.1233 24.4421 63.1233 25.7585C63.1233 27.0853 63.7634 28.0375 64.8849 28.0375C66.0064 28.0375 66.6307 27.0853 66.6307 25.7585ZM61.605 25.7585C61.605 23.7865 62.9117 22.3087 64.8849 22.3087C66.8423 22.3087 68.1542 23.7865 68.1542 25.7585C68.1542 27.7305 66.8476 29.2239 64.8849 29.2239C62.9223 29.2239 61.605 27.7305 61.605 25.7585ZM69.5138 22.4752H70.7517L70.9104 23.2557C71.5875 22.7146 72.3546 22.3087 73.1957 22.3087C73.9893 22.3087 74.6294 22.673 74.9521 23.3702C75.7668 22.6834 76.6185 22.3087 77.4014 22.3087C78.5494 22.3087 79.5439 22.9644 79.5439 24.6814V29.0834H78.0627V25.0873C78.0627 24.2548 77.8934 23.5783 77.0046 23.5783C76.4016 23.5783 75.7932 23.9165 75.2589 24.3484C75.2698 24.4521 75.2733 24.5564 75.2695 24.6606V29.0834H73.7882V25.1029C73.7882 24.2652 73.619 23.5783 72.7408 23.5783C72.1271 23.5783 71.5188 23.9165 70.995 24.3484V29.0834H69.5138V22.4752ZM85.9027 25.7585C85.9027 24.4421 85.2837 23.4951 84.1569 23.4951C83.0301 23.4951 82.3953 24.4421 82.3953 25.7585C82.3953 27.0853 83.0354 28.0375 84.1569 28.0375C85.2784 28.0375 85.9027 27.0853 85.9027 25.7585ZM80.877 25.7585C80.877 23.7865 82.1837 22.3087 84.1569 22.3087C86.1143 22.3087 87.4262 23.7865 87.4262 25.7585C87.4262 27.7305 86.1196 29.2239 84.1569 29.2239C82.1943 29.2239 80.877 27.7305 80.877 25.7585ZM89.3836 27.5172V23.62H88.2039V22.4752H89.3836V20.9507L90.8648 20.5084V22.4752H92.8751L92.5048 23.62H90.8648V27.1946C90.8648 27.7982 91.087 28.0375 91.5314 28.0375C91.944 28.0375 92.3143 27.8814 92.5841 27.6993L93.0496 28.7036C92.488 29.0478 91.8387 29.2282 91.1769 29.2239C90.0554 29.2239 89.3836 28.5943 89.3836 27.5172ZM94.1712 22.4752H95.6524V29.0834H94.1712V22.4752ZM93.986 20.3679C93.986 19.8632 94.3722 19.473 94.9065 19.473C95.4514 19.473 95.8323 19.8476 95.8323 20.3679C95.833 20.4867 95.8094 20.6045 95.7629 20.7142C95.7164 20.8238 95.6479 20.9231 95.5615 21.0062C95.4751 21.0892 95.3725 21.1543 95.26 21.1975C95.1475 21.2407 95.0272 21.2612 94.9065 21.2577C94.786 21.2612 94.666 21.2407 94.5537 21.1974C94.4415 21.1542 94.3393 21.089 94.2533 21.0059C94.1673 20.9228 94.0993 20.8234 94.0534 20.7138C94.0074 20.6041 93.9845 20.4865 93.986 20.3679ZM96.6734 22.4752H98.1758L99.9374 27.2362H99.9691L101.688 22.4752H103.191L100.509 29.125H99.3714L96.6734 22.4752ZM108.005 25.0977C107.978 24.2652 107.566 23.4378 106.614 23.4378C105.714 23.4378 105.196 24.2079 105.18 25.1029L108.005 25.0977ZM103.688 25.7585C103.688 23.7605 104.81 22.3087 106.629 22.3087C108.46 22.3087 109.513 23.6512 109.513 25.7845V26.1331H105.196C105.222 27.2675 105.973 28.0636 107.195 28.0636C107.79 28.0649 108.374 27.9104 108.888 27.6161L109.327 28.6047C108.639 29.0219 107.845 29.2384 107.037 29.2291C104.699 29.2291 103.688 27.5901 103.688 25.7585Z" fill="white"/>
<path fill-rule="evenodd" clip-rule="evenodd" d="M1.06836 1.06897H30.9829V15.5H1.06836V1.06897Z" fill="#E4032E"/>
<path fill-rule="evenodd" clip-rule="evenodd" d="M1.06836 15.5H30.9829V29.931H1.06836V15.5Z" fill="black"/>
<path fill-rule="evenodd" clip-rule="evenodd" d="M6.29688 14.6239H25.7611V16.376H6.29688V14.6239Z" fill="white"/>
<rect x="0.568359" y="0.56897" width="30.9145" height="29.8621" stroke="white"/>
</svg>
