<svg width="71" height="27" viewBox="0 0 71 27" fill="none" xmlns="http://www.w3.org/2000/svg">
<path d="M5.42783 7.35684H10.1149L7.77666 2.50739L5.42783 7.35684ZM4.48619 9.30806L3.08959 12.2115H0.656128L6.58109 0.243973H8.95107L14.8919 12.2115H12.4584L11.0618 9.30806H4.48619ZM16.3784 12.2115V0.243973H18.6373V10.2342H26.7736V12.2115H16.3784ZM34.6083 10.203C37.2533 10.203 38.6023 8.49115 38.6023 6.21212C38.6023 3.97471 37.2586 2.25243 34.6083 2.25243H30.4872V10.203H34.6083ZM34.6083 0.23877C38.4436 0.23877 40.9406 2.61666 40.9406 6.21212C40.9496 6.99327 40.8017 7.76849 40.5054 8.49326C40.209 9.21804 39.77 9.8781 39.2136 10.4355C38.6572 10.993 37.9943 11.4368 37.263 11.7416C36.5316 12.0464 35.7463 12.2061 34.9521 12.2115H28.2336V0.243973L34.6083 0.23877ZM6.21607 22.5192L5.46487 20.4274C5.18978 19.673 5.06282 19.2515 4.96759 18.9445H4.93585C4.77737 19.4429 4.60627 19.9374 4.42271 20.4274L3.64506 22.5192H6.21607ZM4.36452 16.8372H5.47545L9.17854 26.0834H7.5915L6.6816 23.7211H3.20598L2.30665 26.0834H0.77251L4.36452 16.8372ZM10.3741 24.9543C10.2219 24.5269 10.1554 24.0745 10.1784 23.6222V19.4752H11.6596V23.4297C11.6596 23.8044 11.6808 24.0853 11.7813 24.3247C11.9559 24.7566 12.2944 24.9647 12.8182 24.9647C13.453 24.9647 14.0349 24.6473 14.3682 24.2675V19.4804H15.8441V24.2518C15.8441 25.1624 15.8706 25.7348 15.9711 26.0834H14.6962L14.4528 25.3705C13.8763 25.9082 13.1153 26.2128 12.3209 26.2239C11.9016 26.242 11.4872 26.1289 11.1374 25.9008C10.7876 25.6726 10.5203 25.3413 10.3741 24.9543ZM18.23 24.5172V20.62H17.0503V19.4752H18.23V17.9507L19.7112 17.5084V19.4752H21.7215L21.3512 20.62H19.7112V24.1946C19.7112 24.7982 19.9334 25.0375 20.3725 25.0375C20.7851 25.0375 21.1554 24.8814 21.4305 24.6993L21.896 25.7036C21.3329 26.0487 20.6816 26.2292 20.018 26.2239C18.8965 26.2239 18.23 25.5943 18.23 24.5172ZM27.6306 22.7585C27.6306 21.4421 27.0063 20.4951 25.8848 20.4951C24.7633 20.4951 24.1232 21.4421 24.1232 22.7585C24.1232 24.0853 24.7633 25.0375 25.8848 25.0375C27.0063 25.0375 27.6306 24.0853 27.6306 22.7585ZM22.6049 22.7585C22.6049 20.7865 23.9116 19.3087 25.8848 19.3087C27.8422 19.3087 29.1541 20.7865 29.1541 22.7585C29.1541 24.7305 27.8475 26.2239 25.8848 26.2239C23.9222 26.2239 22.6049 24.7305 22.6049 22.7585ZM30.5137 19.4752H31.7516L31.9103 20.2557C32.5874 19.7146 33.3545 19.3087 34.1956 19.3087C34.9891 19.3087 35.6292 19.673 35.9519 20.3702C36.7666 19.6834 37.6183 19.3087 38.4013 19.3087C39.5492 19.3087 40.5438 19.9644 40.5438 21.6814V26.0834H39.0625V22.0873C39.0625 21.2548 38.8933 20.5783 38.0045 20.5783C37.4014 20.5783 36.7931 20.9165 36.2588 21.3484C36.2697 21.4521 36.2732 21.5564 36.2694 21.6606V26.0834H34.7881V22.1029C34.7881 21.2652 34.6188 20.5783 33.7407 20.5783C33.127 20.5783 32.5187 20.9165 31.9949 21.3484V26.0834H30.5137V19.4752ZM46.9025 22.7585C46.9025 21.4421 46.2836 20.4951 45.1568 20.4951C44.03 20.4951 43.3952 21.4421 43.3952 22.7585C43.3952 24.0853 44.0353 25.0375 45.1568 25.0375C46.2783 25.0375 46.9025 24.0853 46.9025 22.7585ZM41.8769 22.7585C41.8769 20.7865 43.1836 19.3087 45.1568 19.3087C47.1142 19.3087 48.4261 20.7865 48.4261 22.7585C48.4261 24.7305 47.1194 26.2239 45.1568 26.2239C43.1942 26.2239 41.8769 24.7305 41.8769 22.7585ZM50.3835 24.5172V20.62H49.2038V19.4752H50.3835V17.9507L51.8647 17.5084V19.4752H53.8749L53.5046 20.62H51.8647V24.1946C51.8647 24.7982 52.0869 25.0375 52.5312 25.0375C52.9439 25.0375 53.3142 24.8814 53.584 24.6993L54.0495 25.7036C53.4879 26.0478 52.8385 26.2282 52.1768 26.2239C51.0553 26.2239 50.3835 25.5943 50.3835 24.5172ZM55.171 19.4752H56.6523V26.0834H55.171V19.4752ZM54.9859 17.3679C54.9859 16.8632 55.3721 16.473 55.9064 16.473C56.4512 16.473 56.8321 16.8476 56.8321 17.3679C56.8329 17.4867 56.8093 17.6045 56.7628 17.7142C56.7163 17.8238 56.6478 17.9231 56.5614 18.0062C56.4749 18.0892 56.3724 18.1543 56.2599 18.1975C56.1473 18.2407 56.0271 18.2612 55.9064 18.2577C55.7859 18.2612 55.6659 18.2407 55.5536 18.1974C55.4414 18.1542 55.3392 18.089 55.2532 18.0059C55.1672 17.9228 55.0992 17.8234 55.0533 17.7138C55.0073 17.6041 54.9844 17.4865 54.9859 17.3679ZM57.6733 19.4752H59.1757L60.9373 24.2362H60.969L62.6883 19.4752H64.1907L61.5086 26.125H60.3712L57.6733 19.4752ZM69.0048 22.0977C68.9783 21.2652 68.5657 20.4378 67.6134 20.4378C66.7141 20.4378 66.1957 21.2079 66.1798 22.1029L69.0048 22.0977ZM64.688 22.7585C64.688 20.7605 65.8095 19.3087 67.6293 19.3087C69.4597 19.3087 70.5124 20.6512 70.5124 22.7845V23.1331H66.1957C66.2221 24.2675 66.9733 25.0636 68.1954 25.0636C68.79 25.0649 69.3743 24.9104 69.8882 24.6161L70.3273 25.6047C69.6392 26.0219 68.8449 26.2384 68.0367 26.2291C65.6984 26.2291 64.688 24.5901 64.688 22.7585Z" fill="black"/>
</svg>
