<svg width="112" height="31" viewBox="0 0 112 31" fill="none" xmlns="http://www.w3.org/2000/svg">
<path d="M44.428 10.3568H49.115L46.7768 5.50733L44.428 10.3568ZM43.4863 12.308L42.0897 15.2114H39.6562L45.5812 3.24391H47.9512L53.892 15.2114H51.4586L50.062 12.308H43.4863ZM55.3785 15.2114V3.24391H57.6374V13.2342H65.7737V15.2114H55.3785ZM73.6084 13.203C76.2534 13.203 77.6024 11.4911 77.6024 9.21206C77.6024 6.97465 76.2587 5.25237 73.6084 5.25237H69.4874V13.203H73.6084ZM73.6084 3.23871C77.4437 3.23871 79.9407 5.6166 79.9407 9.21206C79.9498 9.99321 79.8019 10.7684 79.5055 11.4932C79.2091 12.218 78.7701 12.878 78.2137 13.4355C77.6573 13.9929 76.9944 14.4368 76.2631 14.7415C75.5318 15.0463 74.7465 15.206 73.9522 15.2114H67.2338V3.24391L73.6084 3.23871ZM45.2162 25.5191L44.465 23.4274C44.1899 22.6729 44.0629 22.2514 43.9677 21.9445H43.936C43.7775 22.4429 43.6064 22.9373 43.4228 23.4274L42.6452 25.5191H45.2162ZM43.3646 19.8371H44.4756L48.1787 29.0833H46.5916L45.6817 26.721H42.2061L41.3068 29.0833H39.7726L43.3646 19.8371ZM49.3742 27.9542C49.222 27.5268 49.1556 27.0745 49.1785 26.6222V22.4752H50.6597V26.4297C50.6597 26.8043 50.6809 27.0853 50.7814 27.3246C50.956 27.7565 51.2946 27.9646 51.8183 27.9646C52.4531 27.9646 53.035 27.6472 53.3683 27.2674V22.4804H54.8442V27.2518C54.8442 28.1624 54.8707 28.7347 54.9712 29.0833H53.6963L53.4529 28.3705C52.8764 28.9081 52.1154 29.2128 51.321 29.2238C50.9017 29.242 50.4873 29.1288 50.1375 28.9007C49.7877 28.6726 49.5205 28.3412 49.3742 27.9542ZM57.2301 27.5172V23.6199H56.0504V22.4752H57.2301V20.9506L58.7113 20.5083V22.4752H60.7216L60.3513 23.6199H58.7113V27.1945C58.7113 27.7981 58.9335 28.0375 59.3726 28.0375C59.7852 28.0375 60.1555 27.8814 60.4306 27.6993L60.8962 28.7035C60.333 29.0487 59.6817 29.2291 59.0182 29.2238C57.8967 29.2238 57.2301 28.5942 57.2301 27.5172ZM66.6307 25.7584C66.6307 24.442 66.0064 23.495 64.8849 23.495C63.7634 23.495 63.1233 24.442 63.1233 25.7584C63.1233 27.0853 63.7634 28.0375 64.8849 28.0375C66.0064 28.0375 66.6307 27.0853 66.6307 25.7584ZM61.605 25.7584C61.605 23.7864 62.9117 22.3087 64.8849 22.3087C66.8423 22.3087 68.1542 23.7864 68.1542 25.7584C68.1542 27.7305 66.8476 29.2238 64.8849 29.2238C62.9223 29.2238 61.605 27.7305 61.605 25.7584ZM69.5138 22.4752H70.7517L70.9104 23.2557C71.5875 22.7145 72.3546 22.3087 73.1957 22.3087C73.9893 22.3087 74.6294 22.6729 74.9521 23.3701C75.7668 22.6833 76.6185 22.3087 77.4014 22.3087C78.5494 22.3087 79.5439 22.9643 79.5439 24.6814V29.0833H78.0627V25.0872C78.0627 24.2547 77.8934 23.5783 77.0046 23.5783C76.4016 23.5783 75.7932 23.9165 75.2589 24.3484C75.2698 24.4521 75.2733 24.5564 75.2695 24.6606V29.0833H73.7882V25.1028C73.7882 24.2651 73.619 23.5783 72.7408 23.5783C72.1271 23.5783 71.5188 23.9165 70.995 24.3484V29.0833H69.5138V22.4752ZM85.9027 25.7584C85.9027 24.442 85.2837 23.495 84.1569 23.495C83.0301 23.495 82.3953 24.442 82.3953 25.7584C82.3953 27.0853 83.0354 28.0375 84.1569 28.0375C85.2784 28.0375 85.9027 27.0853 85.9027 25.7584ZM80.877 25.7584C80.877 23.7864 82.1837 22.3087 84.1569 22.3087C86.1143 22.3087 87.4262 23.7864 87.4262 25.7584C87.4262 27.7305 86.1196 29.2238 84.1569 29.2238C82.1943 29.2238 80.877 27.7305 80.877 25.7584ZM89.3836 27.5172V23.6199H88.2039V22.4752H89.3836V20.9506L90.8648 20.5083V22.4752H92.8751L92.5048 23.6199H90.8648V27.1945C90.8648 27.7981 91.087 28.0375 91.5314 28.0375C91.944 28.0375 92.3143 27.8814 92.5841 27.6993L93.0496 28.7035C92.488 29.0477 91.8387 29.2282 91.1769 29.2238C90.0554 29.2238 89.3836 28.5942 89.3836 27.5172ZM94.1712 22.4752H95.6524V29.0833H94.1712V22.4752ZM93.986 20.3679C93.986 19.8631 94.3722 19.4729 94.9065 19.4729C95.4514 19.4729 95.8323 19.8475 95.8323 20.3679C95.833 20.4867 95.8094 20.6044 95.7629 20.7141C95.7164 20.8238 95.6479 20.9231 95.5615 21.0061C95.4751 21.0892 95.3725 21.1542 95.26 21.1974C95.1475 21.2406 95.0272 21.2611 94.9065 21.2576C94.786 21.2611 94.666 21.2406 94.5537 21.1974C94.4415 21.1541 94.3393 21.089 94.2533 21.0058C94.1673 20.9227 94.0993 20.8233 94.0534 20.7137C94.0074 20.6041 93.9845 20.4864 93.986 20.3679ZM96.6734 22.4752H98.1758L99.9374 27.2362H99.9691L101.688 22.4752H103.191L100.509 29.125H99.3714L96.6734 22.4752ZM108.005 25.0976C107.978 24.2651 107.566 23.4378 106.614 23.4378C105.714 23.4378 105.196 24.2079 105.18 25.1028L108.005 25.0976ZM103.688 25.7584C103.688 23.7604 104.81 22.3087 106.629 22.3087C108.46 22.3087 109.513 23.6511 109.513 25.7845V26.1331H105.196C105.222 27.2674 105.973 28.0635 107.195 28.0635C107.79 28.0648 108.374 27.9104 108.888 27.616L109.327 28.6046C108.639 29.0219 107.845 29.2384 107.037 29.229C104.699 29.229 103.688 27.59 103.688 25.7584Z" fill="black"/>
<path fill-rule="evenodd" clip-rule="evenodd" d="M1.06836 1.06897H30.9829V15.5H1.06836V1.06897Z" fill="#E4032E"/>
<path fill-rule="evenodd" clip-rule="evenodd" d="M1.06836 15.5H30.9829V29.931H1.06836V15.5Z" fill="black"/>
<path fill-rule="evenodd" clip-rule="evenodd" d="M6.29688 14.624H25.7611V16.3761H6.29688V14.624Z" fill="#F8F8FB"/>
<rect x="0.568359" y="0.56897" width="30.9145" height="29.8621" stroke="#F8F8FB"/>
</svg>
